Coordinates
version=1
nRows=16
nColumns=36
inDegrees=yes

Units are S.I. units (second, meters, Newtons, ...)
If the header above contains a line with 'inDegrees', this indicates whether rotational values are in degrees (yes) or radians (no).

endheader
time	pelvis_tilt	pelvis_list	pelvis_rotation	pelvis_tx	pelvis_ty	pelvis_tz	hip_flexion_r	hip_adduction_r	hip_rotation_r	knee_angle_r	knee_angle_r_beta	ankle_angle_r	subtalar_angle_r	mtp_angle_r	hip_flexion_l	hip_adduction_l	hip_rotation_l	knee_angle_l	knee_angle_l_beta	ankle_angle_l	subtalar_angle_l	mtp_angle_l	lumbar_extension	lumbar_bending	lumbar_rotation	arm_flex_r	arm_add_r	arm_rot_r	elbow_flex_r	pro_sup_r	arm_flex_l	arm_add_l	arm_rot_l	elbow_flex_l	pro_sup_l
     10.60000000	    -15.12334902	     -1.76159164	     -2.00786750	     -0.25766065	      0.99944584	     -0.59332306	     33.01432206	     -0.05365283	     -9.25767752	     25.16089304	      0.43914043	      6.53414070	    -13.52758608	     -7.49999987	     33.74442532	    -16.90236831	    -11.63092756	     25.64450842	      0.44758111	      3.21721735	      8.37619008	     -7.49999987	    -14.63621496	      5.34924389	      3.32857145	     43.69804756	    -14.42970656	     17.72017528	    112.53061957	    104.64860392	     35.20122598	     -7.01476672	     19.67328024	    114.06065627	    110.64336733
     10.61000000	    -14.90110817	     -1.77533622	     -2.02757472	     -0.25601900	      1.00125880	     -0.59370141	     32.29488254	     -0.02442278	     -9.37001281	     24.42561930	      0.42630748	      6.35035313	    -13.23006597	     -7.49999987	     33.02765596	    -16.76265457	    -11.63091432	     24.97333562	      0.43586693	      2.96025227	      8.23224223	     -7.49999987	    -14.45441075	      5.44539654	      3.22107691	     43.36680391	    -14.48643622	     17.87605942	    112.51711226	    104.14274309	     34.63419373	     -6.99874526	     19.53405288	    114.08899567	    110.60669145
     10.62000000	    -14.70489203	     -1.78272816	     -2.08892834	     -0.25441451	      1.00292283	     -0.59383763	     31.63134418	      0.04732089	     -9.39562221	     23.72486971	      0.41407709	      6.11072627	    -13.02948541	     -7.49999987	     32.34162203	    -16.67181661	    -11.72827802	     24.33228445	      0.42467848	      2.77119259	      8.20083438	     -7.49999987	    -14.24630521	      5.50186286	      3.15825705	     43.02428051	    -14.52662479	     17.99494964	    112.46992676	    103.78870504	     34.09984058	     -7.00634505	     19.42451974	    114.09951117	    110.72225803
     10.63000000	    -14.51546171	     -1.84423591	     -2.18134364	     -0.25290645	      1.00445157	     -0.59372833	     30.98168393	      0.22252796	     -9.33423024	     23.02012191	      0.40177692	      5.83516139	    -12.94481998	     -7.49999987	     31.70971413	    -16.70160268	    -11.91853314	     23.78277459	      0.41508772	      2.68554223	      8.36821185	     -7.49999987	    -14.05280414	      5.59772338	      3.13959909	     42.72091748	    -14.56395658	     18.12867963	    112.38311603	    103.58583973	     33.59587529	     -7.03438880	     19.34897559	    114.13684736	    110.73819998
     10.64000000	    -14.28996239	     -1.84419550	     -2.26632106	     -0.25137889	      1.00604894	     -0.59357752	     30.28382527	      0.34927878	     -9.16753242	     22.29842320	      0.38918090	      5.56117122	    -12.95119490	     -7.49999987	     31.01009454	    -16.66852892	    -12.18616727	     23.18675960	      0.40468530	      2.51511647	      8.56437171	     -7.49999987	    -13.92137889	      5.60401943	      3.14133526	     42.36767239	    -14.59879114	     18.28477726	    112.43085720	    102.69271658	     33.16872420	     -7.04551027	     19.38610395	    114.21520959	    110.19783477
     10.65000000	    -14.22875166	     -1.77978054	     -2.25861305	     -0.25005098	      1.00729633	     -0.59380202	     29.84377793	      0.29269118	     -9.25495770	     21.72743434	      0.37921527	      5.52403588	    -12.50642048	     -7.49999987	     30.52751212	    -16.40856398	    -11.99442673	     22.56268767	      0.39379319	      2.17083718	      8.04028977	     -7.49999987	    -13.58702546	      5.60470078	      3.05387110	     42.07084277	    -14.71785424	     18.32590449	    112.27738437	    104.06043003	     32.70996179	     -7.03425404	     19.26920462	    114.12901665	    110.76850489
     10.66000000	    -14.06630701	     -1.76675968	     -2.24790804	     -0.24860101	      1.00871255	     -0.59403675	     29.26017772	      0.30117464	     -9.30451677	     21.10501591	      0.36835202	      5.31635638	    -12.35409203	     -7.49999987	     29.94507592	    -16.25773117	    -12.03634834	     21.95729166	      0.38322703	      1.94233523	      7.99573530	     -7.49999987	    -13.38553553	      5.66990247	      2.99268412	     41.77857426	    -14.81796608	     18.42445219	    112.32215877	    103.74014884	     32.27673480	     -7.03132776	     19.23829696	    114.06321187	    110.73087303
     10.67000000	    -13.84811087	     -1.84626545	     -2.26576029	     -0.24718557	      1.01022667	     -0.59420660	     28.58966928	      0.44308153	     -9.27085785	     20.42224584	      0.35643543	      5.00764042	    -12.25255527	     -7.49999987	     29.30840644	    -16.21727961	    -11.99708604	     21.37012650	      0.37297907	      1.73445316	      7.94453120	     -7.49999987	    -13.27498903	      5.81792104	      2.95158846	     41.52810213	    -14.91301389	     18.50158957	    112.20937681	    104.55391104	     31.85559878	     -7.01656763	     19.21578117	    114.10183167	    110.55592417
     10.68000000	    -13.57582482	     -1.95737585	     -2.35588078	     -0.24570513	      1.01177106	     -0.59401315	     27.83477509	      0.69014078	     -9.10570063	     19.68327767	      0.34353800	      4.70605288	    -12.22647872	     -7.49999987	     28.61341872	    -16.32973543	    -12.25755572	     20.86065554	      0.36408712	      1.63553415	      8.21145543	     -7.49999987	    -13.23116381	      5.94164071	      3.03107316	     41.21489174	    -14.98962375	     18.55307733	    112.21392008	    104.21787687	     31.49256891	     -6.97076316	     19.22187524	    114.04036727	    110.60934344
     10.69000000	    -13.40372647	     -2.08336231	     -2.43493601	     -0.24428329	      1.01305837	     -0.59366917	     27.20813402	      0.96330350	     -8.93194254	     18.97554500	      0.33118574	      4.22889898	    -12.42928302	     -7.49999987	     28.05279994	    -16.46172997	    -12.45828545	     20.37921933	      0.35568448	      1.58651621	      8.53655417	     -7.49999987	    -13.06161891	      6.07913823	      3.08478505	     40.90284692	    -15.05627526	     18.62796535	    112.15533267	    104.21511009	     31.09316815	     -6.94638969	     19.18175499	    114.03170188	    110.58540701
     10.70000000	    -13.29494869	     -2.08267724	     -2.49678623	     -0.24291989	      1.01420442	     -0.59351376	     26.70645460	      1.06372976	     -8.79880472	     18.37286359	      0.32066696	      4.00103163	    -12.38201632	     -7.49999987	     27.52081357	    -16.39706017	    -12.55145055	     19.81249735	      0.34579331	      1.35536718	      8.53166118	     -7.49999987	    -12.82411036	      6.08237399	      3.12899128	     40.54549391	    -15.14075388	     18.65238959	    112.19128782	    104.00570572	     30.72493416	     -6.93139226	     19.20268984	    113.98890689	    110.74359017
     10.71000000	    -13.18365157	     -2.15171772	     -2.49756104	     -0.24157113	      1.01535191	     -0.59363996	     26.15336113	      1.20971792	     -8.70310202	     17.68388943	      0.30864210	      3.52322721	    -12.61073763	     -7.49999987	     27.02764798	    -16.36939665	    -12.59159761	     19.26731247	      0.33627804	      1.20596304	      8.70147566	     -7.49999987	    -12.60127318	      6.20869358	      3.08678331	     40.23853443	    -15.22017781	     18.72832024	    112.20379602	    103.62342813	     30.32546416	     -6.95301655	     19.25007441	    114.05597935	    110.27427531
     10.72000000	    -13.03773678	     -2.17909903	     -2.45052868	     -0.24022486	      1.01652275	     -0.59397089	     25.57098886	      1.25235716	     -8.76494808	     17.03038071	      0.29723622	      3.51766286	    -12.17128077	     -7.49999987	     26.45224906	    -16.20131880	    -12.38878141	     18.59653747	      0.32457081	      0.90230878	      8.31091530	     -7.49999987	    -12.40763935	      6.30757625	      2.98299409	     39.97498538	    -15.29670981	     18.78666350	    112.10406850	    104.16170975	     29.92890460	     -6.95150662	     19.18834132	    113.98458551	    110.89269122
     10.73000000	    -12.89822542	     -2.28008349	     -2.46854244	     -0.23885673	      1.01766373	     -0.59392100	     24.92744805	      1.46284680	     -8.57287174	     16.22837707	      0.28323861	      3.08583502	    -12.36965364	     -7.49999987	     25.92777331	    -16.25664586	    -12.64644592	     18.05966387	      0.31520060	      0.77219150	      8.59707698	     -7.49999987	    -12.20829192	      6.43994181	      2.98757938	     39.64846813	    -15.34289328	     18.75950046	    112.05264738	    104.66330387	     29.56199188	     -6.91415061	     19.21836038	    113.96750726	    110.30304614
     10.74000000	    -12.73528701	     -2.40300817	     -2.36967807	     -0.23760605	      1.01887459	     -0.59413841	     24.26653233	      1.61497219	     -8.63542676	     15.45625466	      0.26976253	      2.85760466	    -12.14516239	     -7.49999987	     25.38336025	    -16.21193795	    -12.38844463	     17.43168611	      0.30424032	      0.54272199	      8.55679228	     -7.49999987	    -12.06374055	      6.63128925	      2.90997785	     39.36533257	    -15.46135945	     18.81596550	    112.08485633	    104.40564190	     29.21143698	     -6.85417458	     19.20029945	    113.92979214	    110.69688603
     10.75000000	    -12.55587519	     -2.51867951	     -2.27244624	     -0.23630908	      1.02006304	     -0.59431420	     23.56463409	      1.77006152	     -8.72398004	     14.63354309	      0.25540351	      2.56537183	    -12.04443201	     -7.49999987	     24.83927102	    -16.20659898	    -12.30237461	     16.85793410	      0.29422646	      0.38608464	      8.73794761	     -7.49999987	    -11.92661232	      6.81218151	      2.81380299	     39.07429238	    -15.52672806	     18.84260141	    112.05457799	    104.38807191	     28.85474488	     -6.79349498	     19.17268124	    113.91244208	    110.62846879
